<?xml version="1.0" encoding="utf-8"?>
<!-- Generator: Adobe Illustrator 16.0.3, SVG Export Plug-In . SVG Version: 6.00 Build 0)  -->
<!DOCTYPE svg PUBLIC "-//W3C//DTD SVG 1.1//EN" "http://www.w3.org/Graphics/SVG/1.1/DTD/svg11.dtd">
<svg version="1.1" id="Layer_1" xmlns="http://www.w3.org/2000/svg" xmlns:xlink="http://www.w3.org/1999/xlink" x="0px" y="0px"
	 width="850px" height="420px" viewBox="0 0 850 420" enable-background="new 0 0 850 420" xml:space="preserve">
<path fill="#FFFFFF" d="M350.159,206.167h21.778c31.612,0,50.439,19.529,50.439,47.769s-18.686,47.77-50.439,47.77h-21.778V206.167z
	 M371.094,293.415c28.241,0,41.729-16.297,41.729-39.479s-13.488-39.482-41.729-39.482h-11.802v78.961H371.094z"/>
<rect x="442.897" y="206.167" fill="#FFFFFF" width="9.273" height="95.539"/>
<path fill="#FFFFFF" d="M475.776,253.934c0-28.238,22.411-48.892,50.207-48.892c17.316,0,28.813,5.902,37.254,14.894l-6.695,6.041
	c-6.84-7.307-15.57-12.645-30.85-12.645c-22.995,0-40.021,17.422-40.021,40.602c0,23.184,17.318,40.605,41.768,40.605
	c14.551,0,23.719-4.074,30.124-9.271V263.35h-29.833v-8.15h38.855v34.281c-9.022,7.729-20.519,13.35-39.146,13.35
	C498.332,302.831,475.776,282.315,475.776,253.934"/>
<rect x="591.834" y="206.167" fill="#FFFFFF" width="9.273" height="95.539"/>
<polygon fill="#FFFFFF" points="652.671,214.315 623.026,214.315 623.026,206.166 691.309,206.166 691.309,214.315 661.806,214.315 
	661.806,301.706 652.671,301.706 "/>
<path fill="#FFFFFF" d="M749.063,278.102H705.79l-9.413,23.604h-9.274l40.184-97.787h0.702l40.323,97.787h-9.695L749.063,278.102z
	 M709.162,269.952h36.529l-18.265-45.381L709.162,269.952z"/>
<polygon fill="#FFFFFF" points="786.864,206.167 795.996,206.167 795.996,293.555 837.586,293.555 837.586,301.706 786.864,301.706 
	"/>
<polygon fill="#FFFFFF" points="350.439,318.616 413.521,318.616 413.521,331.961 365.472,331.961 365.472,362.03 409.587,362.03 
	409.587,375.375 365.472,375.375 365.472,414.155 350.439,414.155 "/>
<rect x="435.866" y="318.616" fill="#FFFFFF" width="15.033" height="95.539"/>
<path fill="#FFFFFF" d="M480.968,389.004c4.355,8.291,11.803,12.926,21.638,12.926c10.116,0,16.859-4.775,16.859-12.504
	c0-8.992-6.884-12.363-15.314-16.158l-6.603-2.947c-14.051-6.184-23.744-13.209-23.744-28.102c0-14.611,11.099-24.869,27.396-24.869
	c13.207,0,22.059,4.918,28.1,15.035l-11.38,7.445c-3.653-6.182-8.852-9.271-16.439-9.271c-8.148,0-13.065,4.494-13.065,11.1
	c0,7.586,4.776,10.254,15.174,14.893l6.603,2.949c14.473,6.463,24.166,13.348,24.166,29.504c0,17.564-13.486,26.416-31.611,26.416
	c-16.298,0-27.959-7.869-34.423-20.092L480.968,389.004z"/>
<polygon fill="#FFFFFF" points="615.292,318.616 630.324,318.616 630.324,414.155 615.292,414.155 615.292,374.254 569.487,374.254 
	569.487,414.155 554.455,414.155 554.455,318.616 569.487,318.616 569.487,360.905 615.292,360.905 "/>
<rect x="653.656" y="318.616" fill="#FFFFFF" width="15.033" height="95.539"/>
<polygon fill="#FFFFFF" points="693.42,318.616 757.064,318.616 757.064,331.961 708.453,331.961 708.453,359.362 751.867,359.362 
	751.867,372.426 708.453,372.426 708.453,400.809 759.032,400.809 759.032,414.155 693.42,414.155 "/>
<path fill="#FFFFFF" d="M786.857,389.004c4.354,8.291,11.801,12.926,21.637,12.926c10.114,0,16.858-4.775,16.858-12.504
	c0-8.992-6.885-12.363-15.313-16.158l-6.605-2.947c-14.05-6.184-23.743-13.209-23.743-28.102c0-14.611,11.099-24.869,27.396-24.869
	c13.206,0,22.058,4.918,28.101,15.035l-11.382,7.445c-3.652-6.182-8.852-9.271-16.438-9.271c-8.148,0-13.066,4.494-13.066,11.1
	c0,7.586,4.778,10.254,15.173,14.893l6.604,2.949c14.471,6.463,24.165,13.348,24.165,29.504c0,17.564-13.487,26.416-31.611,26.416
	c-16.298,0-27.96-7.869-34.422-20.092L786.857,389.004z"/>
<polygon fill="#FFFFFF" points="71.223,173.584 71.223,153.724 9.755,92.255 9.755,112.117 "/>
<polygon fill="#FFFFFF" points="9.754,181.941 9.754,201.801 71.223,263.27 71.223,243.409 "/>
<polygon fill="#FFFFFF" points="304.286,207.98 100.885,4.58 100.885,54.232 279.459,232.807 "/>
<polygon fill="#FFFFFF" points="259.707,252.559 100.884,93.736 100.884,143.389 234.881,277.385 "/>
<polygon fill="#FFFFFF" points="215.129,297.137 100.885,182.894 100.885,232.545 190.303,321.963 "/>
<polygon fill="#FFFFFF" points="170.55,341.715 100.884,272.049 100.884,321.704 145.725,366.542 "/>
<polygon fill="#FFFFFF" points="125.972,386.293 100.885,361.208 100.885,410.86 101.146,411.12 "/>
</svg>